<!--?xml version="1.0" encoding="utf-8"?-->
<!-- Generator: Adobe Illustrator 15.1.0, SVG Export Plug-In . SVG Version: 6.00 Build 0)  -->

<svg version="1.1" id="_x32_" xmlns="http://www.w3.org/2000/svg" xmlns:xlink="http://www.w3.org/1999/xlink" x="0px" y="0px" width="512px" height="512px" viewBox="0 0 512 512" style="width: 256px; height: 256px; opacity: 1;" xml:space="preserve">
<style type="text/css">

	.st0{fill:#4B4B4B;}

</style>
<g>
	<path class="st0" d="M453.5,429.797c-1.984-7.484-4.781-14.203-8.25-20.188c-6.031-10.516-14.063-18.703-22.938-25.203
		c-6.656-4.906-13.781-8.891-21.016-12.313C390.438,366.938,379.281,363,369,359.203c-10.313-3.797-19.797-7.484-27.234-11.766
		l-0.828-0.469c-2.688-1.563-5.063-3.219-7.156-4.938c-3.156-2.625-5.563-5.406-7.344-8.516c-1.75-3.109-2.953-6.609-3.406-10.984
		c-0.328-3.094-0.469-2.891-0.469-6c0-9.188,1.266-18.25,2.797-25.656c4.625-5.219,8.844-11.438,12.844-18.875
		c4.016-7.469,7.828-16.219,11.625-26.563c2.422-1.125,4.891-2.438,7.297-4.063c5.469-3.656,10.656-8.781,14.969-15.625
		c4.328-6.813,7.781-15.297,10.156-25.781c0.656-2.875,0.969-5.781,0.969-8.625c0.016-5.938-1.391-11.594-3.766-16.688
		c-1.609-3.469-3.703-6.688-6.125-9.625c1.234-4.563,2.734-10.688,4.063-17.906c1.859-9.969,3.391-21.969,3.391-34.563
		c0-8.156-0.641-16.563-2.297-24.844c-1.234-6.219-3.047-12.406-5.625-18.313c-3.859-8.875-9.453-17.25-17.266-24.156
		c-7.219-6.406-16.25-11.484-27.188-14.75c-3.844-4.625-7.719-8.563-11.719-11.906c-3.422-2.875-6.938-5.313-10.531-7.281
		c-5.391-3-11-4.969-16.734-6.188s-11.578-1.656-17.641-1.656c-8.359,0.031-17.156,0.844-26.875,1.797
		c-3.656,0.375-6.75,0.828-9.406,1.297c-4,0.719-6.969,1.469-9.375,1.938c-1.188,0.25-2.234,0.438-3.281,0.531
		c-1.016,0.156-2.031,0.219-3.156,0.219c-1.531,0-3.313-0.125-5.609-0.469C207,7.75,200.531,6.156,195.469,4.594
		c-2.547-0.781-4.75-1.531-6.469-2.188c-0.859-0.313-1.594-0.625-2.188-0.875c-0.609-0.25-1.078-0.469-1.344-0.594
		c-0.75-0.406-1.5-0.625-2.188-0.766C182.609,0.031,182.016,0,181.5,0c-1.078,0-1.828,0.156-2.469,0.313
		c-0.594,0.172-1.063,0.344-1.469,0.516c-0.813,0.328-1.438,0.672-2.063,1.047c-1.156,0.688-2.219,1.453-3.391,2.344
		c-2.016,1.563-4.25,3.5-6.609,5.781c-3.516,3.406-7.297,7.531-10.719,12.016c-1.719,2.234-3.344,4.594-4.797,7.016
		c-1.453,2.438-2.734,4.922-3.734,7.531c-4.969,12.906-8.281,24.813-10.313,35.781c-2.031,11-2.828,21.063-2.828,30.297
		c0,15.109,2.125,27.922,4.141,38.734c0,0.531,0.031,1.016,0.063,1.531c0.063,1,0.156,2.063,0.281,3.156
		c0.156,1.625,0.375,3.313,0.5,4.703c0.063,0.703,0.125,1.328,0.172,1.828c0.031,0.219,0.047,0.438,0.047,0.594v0.156v0.031v0.016
		v0.922l2,8.844c-2.859,3.125-5.344,6.625-7.266,10.469c-2.672,5.344-4.266,11.375-4.266,17.734c0,2.828,0.313,5.734,0.969,8.641
		v-0.031c1.594,7,3.656,13.094,6.156,18.406c3.688,7.984,8.406,14.188,13.641,18.844c4.047,3.625,8.359,6.266,12.641,8.219
		c3.813,10.344,7.594,19.063,11.609,26.531c4,7.469,8.219,13.656,12.844,18.875c1.516,7.438,2.797,16.5,2.797,25.703
		c0,3.109-0.141,2.891-0.469,5.984l0,0c-0.313,3-0.969,5.609-1.938,7.938c-1.406,3.5-3.5,6.5-6.328,9.297
		c-2.797,2.797-6.391,5.391-10.641,7.797l-3.328,1.781c-3.547,1.813-7.422,3.531-11.563,5.219
		c-9.547,3.875-20.453,7.531-31.5,11.922c-8.281,3.313-16.672,7.063-24.656,11.781c-5.984,3.516-11.781,7.625-17.078,12.484
		c-7.953,7.281-14.797,16.344-19.531,27.563c-4.75,11.25-7.391,24.531-7.391,40.25c0,2.188,0.484,4.344,1.25,6.281
		c0.703,1.813,1.688,3.5,2.828,5.094c2.188,2.969,5,5.625,8.469,8.188c6.047,4.469,14.109,8.641,24.531,12.594
		c15.625,5.891,36.563,11.188,63.641,15.031C182.797,509.594,216,512,256,512c34.688,0,64.25-1.813,89.125-4.781
		c18.672-2.25,34.719-5.156,48.344-8.469c10.203-2.5,19.063-5.234,26.656-8.125c5.688-2.156,10.688-4.406,15.016-6.719
		c3.266-1.719,6.141-3.5,8.703-5.344c3.813-2.75,6.875-5.594,9.188-8.813c1.156-1.625,2.125-3.344,2.844-5.219
		c0.672-1.844,1.109-3.875,1.109-5.969C456.984,447.906,455.781,438.344,453.5,429.797z M239.453,430.656l-53.375-73.531
		c0.688-0.5,1.359-1.031,2.031-1.547c2.938-2.344,5.641-4.984,8.016-7.953l43.031,19.969l-9.203,15.313l14.234,15.063
		L239.453,430.656z M202.25,337.531c1.719-4.047,2.906-8.5,3.391-13.281c0.375-3.719,0.547-4.094,0.547-7.703
		c-0.016-11.781-1.75-22.797-3.625-31.438l-0.5-2.266l-1.609-1.703c-4.063-4.297-7.969-9.766-11.891-17.078
		c-3.938-7.313-7.844-16.406-11.844-27.75l-1.328-3.719l-3.703-1.344c-2.547-0.938-5.031-2.156-7.438-3.766
		c-3.625-2.438-7.047-5.734-10.188-10.672c-3.125-4.938-5.953-11.563-7.969-20.531c-0.375-1.688-0.563-3.328-0.563-4.922
		c0-3.563,0.875-6.969,2.5-10.234c1.344-2.688,3.234-5.25,5.5-7.563c3.859,5.813,7.031,10.422,8.188,11.578
		c3.781,3.766,4.313-5.109,2.531-15.078c-3.313-18.344,16.781-40.125,18.844-82.906C228.313,97.203,316.719,78,316.719,78
		s0.938,21.969,16.031,42.047c14.313,19.078,22.438,63.828,22.438,63.828s1.953-3.688,4.844-8.625c1.75,2.031,3.188,4.219,4.25,6.5
		c1.422,3.063,2.188,6.25,2.188,9.594c0,1.609-0.172,3.25-0.563,4.938c-1.344,5.969-3.047,10.906-4.969,14.984
		c-2.875,6.141-6.172,10.359-9.625,13.484c-3.469,3.063-7.156,5.094-11,6.5l-3.688,1.344l-1.313,3.703
		c-4.031,11.359-7.938,20.453-11.859,27.781c-3.922,7.297-7.859,12.797-11.922,17.078l-1.594,1.703l-0.5,2.266
		c-1.875,8.625-3.625,19.641-3.625,31.406c0,3.625,0.156,3.984,0.563,7.719c0.438,4.344,1.438,8.422,2.922,12.156
		c0.078,0.188,0.141,0.375,0.234,0.531l-50.906,26.75L202.25,337.531z M276.781,434.156l-5.25-36.188l14.203-15.063l-9.219-15.375
		l38.922-20.438c1.094,1.375,2.219,2.688,3.422,3.922c2.234,2.281,4.625,4.328,7.188,6.219L276.781,434.156z" style="fill: rgb(75, 75, 75);"></path>
</g>
</svg>
